<svg width="20" height="20" viewBox="0 0 20 20" fill="none" xmlns="http://www.w3.org/2000/svg">
<path d="M18.9469 6.305C18.9369 5.54762 18.7951 4.79777 18.5279 4.089C18.2963 3.49115 17.9425 2.9482 17.4891 2.49483C17.0358 2.04146 16.4928 1.68765 15.8949 1.456C15.1953 1.19336 14.4561 1.05134 13.7089 1.036C12.7469 0.992999 12.4419 0.980999 9.99995 0.980999C7.55795 0.980999 7.24495 0.980999 6.28995 1.036C5.54311 1.05145 4.8043 1.19347 4.10495 1.456C3.50701 1.68749 2.96397 2.04124 2.51058 2.49463C2.05719 2.94802 1.70344 3.49106 1.47195 4.089C1.20878 4.78813 1.06707 5.52711 1.05295 6.274C1.00995 7.237 0.996948 7.542 0.996948 9.984C0.996948 12.426 0.996948 12.738 1.05295 13.694C1.06795 14.442 1.20895 15.18 1.47195 15.881C1.70383 16.4788 2.05784 17.0216 2.51138 17.4748C2.96492 17.928 3.50801 18.2816 4.10595 18.513C4.80338 18.7862 5.54232 18.9384 6.29095 18.963C7.25395 19.006 7.55895 19.019 10.0009 19.019C12.4429 19.019 12.7559 19.019 13.7109 18.963C14.4581 18.9483 15.1973 18.8066 15.8969 18.544C16.4946 18.3121 17.0375 17.9582 17.4908 17.5048C17.9441 17.0515 18.298 16.5087 18.5299 15.911C18.7929 15.211 18.9339 14.473 18.9489 13.724C18.9919 12.762 19.0049 12.457 19.0049 10.014C19.0029 7.572 19.0029 7.262 18.9469 6.305ZM9.99395 14.602C7.43995 14.602 5.37095 12.533 5.37095 9.979C5.37095 7.425 7.43995 5.356 9.99395 5.356C11.22 5.356 12.3959 5.84306 13.2629 6.71004C14.1299 7.57703 14.6169 8.7529 14.6169 9.979C14.6169 11.2051 14.1299 12.381 13.2629 13.248C12.3959 14.1149 11.22 14.602 9.99395 14.602ZM14.8009 6.263C14.6593 6.26313 14.5191 6.23534 14.3883 6.18121C14.2574 6.12708 14.1385 6.04768 14.0384 5.94755C13.9383 5.84743 13.8589 5.72854 13.8047 5.59769C13.7506 5.46684 13.7228 5.3266 13.7229 5.185C13.7229 5.0435 13.7508 4.90339 13.805 4.77266C13.8591 4.64193 13.9385 4.52315 14.0385 4.42309C14.1386 4.32304 14.2574 4.24367 14.3881 4.18952C14.5188 4.13537 14.6589 4.1075 14.8004 4.1075C14.9419 4.1075 15.0821 4.13537 15.2128 4.18952C15.3435 4.24367 15.4623 4.32304 15.5624 4.42309C15.6624 4.52315 15.7418 4.64193 15.7959 4.77266C15.8501 4.90339 15.8779 5.0435 15.8779 5.185C15.8779 5.781 15.3959 6.263 14.8009 6.263Z" fill="#AE7B3C"/>
</svg>
